<svg width="12" height="11" viewBox="0 0 12 11" fill="none" xmlns="http://www.w3.org/2000/svg">
<path d="M1.68897 6.54205L5.87497 10.8703L10.061 6.54205C10.8123 5.96495 11.2416 5.04158 11.2416 4.00279C11.2416 2.21376 9.89997 0.770996 8.2363 0.770996C7.2703 0.770996 6.41163 1.29039 5.87497 2.04063C5.3383 1.23268 4.47963 0.770996 3.51363 0.770996C1.84997 0.770996 0.508301 2.21376 0.508301 4.00279C0.508301 5.04158 0.991301 5.96495 1.68897 6.54205ZM3.51363 1.92521C4.10397 1.92521 4.6943 2.21376 5.0163 2.73316L5.87497 4.00279L6.73363 2.79087C7.1093 2.27147 7.64597 1.98292 8.2363 1.98292C9.30963 1.98292 10.1683 2.90629 10.1683 4.0605C10.1683 4.69532 9.89997 5.33013 9.41697 5.6764H9.3633L9.30963 5.73411L5.87497 9.25445L2.4403 5.6764H2.38663L2.33297 5.61868C1.84997 5.21471 1.58163 4.63761 1.58163 4.00279C1.58163 2.84858 2.4403 1.92521 3.51363 1.92521Z" fill="#1F1C20"/>
</svg>
